<svg xmlns="http://www.w3.org/2000/svg" version="1.1" xmlns:xlink="http://www.w3.org/1999/xlink" xmlns:svgjs="http://svgjs.dev/svgjs" width="2000" height="2250" viewBox="0 0 2000 2250"><g transform="matrix(1,0,0,1,0.00014687500004129106,0)"><svg viewBox="0 0 320 360" data-background-color="#293040" preserveAspectRatio="xMidYMid meet" height="2250" width="2000" xmlns="http://www.w3.org/2000/svg" xmlns:xlink="http://www.w3.org/1999/xlink"><g id="tight-bounds" transform="matrix(1,0,0,1,0.000023499999997511622,0)"><svg viewBox="0 0 320 360" height="360" width="320"><g><svg></svg></g><g><svg viewBox="0 0 320 360" height="360" width="320"><g><path transform="translate(-74.99272,-51.79039) scale(4.65793,4.65793)" d="M20.6 59.9l0.8 1-0.4-1.3c-0.1-0.6-0.8 0.1-0.4 0.3M21.5 59.3c0.3 0.5 0.6 1 0.6 1.5 0 0.7 0.6 1 1.1 1.2-0.7-0.8-1.1-3-1.7-2.7M59.9 16.9c1.7 0 3.3-0.2 5.1 0.2 4.4 1.1 8.1 3.3 10.6 6.4l7 11.2c0.3 2.8 0.9 5.9 0.8 9.3 0.7 0 0.6-1 1.4-1.2-0.8 2-1.2 4.5-1.4 7.4-0.5-1.6 0-4 0.1-5.3-0.7 1.1-1.1 0.3-1.1-0.2 0.1-0.8-0.3-0.7-0.6-1-1.1-1-1.8-2.1-2.6-3.8 0.5-1.3 0.6-3.2-1-4.2-0.5-0.3-1.1-0.8-1.4-1.6-0.4-1.1-1.1-2.4-0.9-4.1 0.1-0.5-1.5 1.1-2.4 0.4-3.9-2.7-7.8-5.8-12.5-8.4-2.5 0-4.3-0.9-5.2-2-0.8-1-0.2-2.3 1-2.4 0.7 0 1.5-0.2 2.1 0.2 0.1-0.4 0.5-0.9 1-0.9M50 14.6l0.2 0.1c1 0.2 1.5 1.6 2.6 1.1 0 0.7 0.1 1.4-0.1 1.9-0.3 0.8-1.2 0.8-1.9 0.8-6.7-0.4-10.6 2.4-14.7 4.8-1.1 0.7-2.3 1.2-3.2 2.1-4.3 4-9 7.7-10.1 15.1l-0.9 8.2c-0.1 0.9-1.1 1.8-0.9 2.9l0.7 4.9c-0.7-0.7-1.1 0.2-0.9 0.6 0.1 0.3 0.5 1.3 1.1 0.4 0.8 1.5 1.6 4.4 2.7 5.7 3.4 4 7.8 7.6 11.4 11.2 0.9-0.2 1.6-0.2 1.8-0.8 0.3 0.6-0.3 1.2-0.8 1.3 1.6 1 3.4 1.9 5.8 2.1 3.1 0.2 6 0.7 8.7 1.4 1.4-0.4 2.8-0.6 4.3-0.7 0.5 0 0.8-0.8 1.4-1l0.1-1c0.6 0.9 0.5-0.3 0.1-0.9 0.7 0.6 0.9 1.1 1.2 1.5 0-0.3 0.8-1.4 0.8-0.1l0.2-1.3c0.3-0.2 0.4 1.1 0.7 0.2 0.3-0.9 0.9-0.2 1.5-0.5-0.2 0.4-0.1 1.2 0.6 0.7l0.8-0.7c0.5 1.2 1.3 0.7 1.7 0.5 4.4-2.8 8.8-6.1 13-9.4l-0.1 1.3 0.5-1.6c0.5 0.5 0.9 0.1 1.1-0.2 0.6-1 1.4-2 2.7-2.9-1.6 4.3-3.5 7.7-5.9 10.5l-1 1.2c0 0.7-0.2 1.6-1 1.7-0.4 0.1-1.2-0.2-1.8 0.4-0.3 0.4 0.7 1.2-0.1 0.6-0.7-0.5-1.4 0-2.2 0.2-0.6 0.2 0.4 0.8 0.6 1.2 0.2 0.4 0.4 0.8 0.3 1.3l-1.1-1.2c-1.3 0.7-2.1 2-3.2 3-0.5 0.4-0.3 1.1-0.3 1.7-0.7 0-1.5-0.2-1.9 0.2-0.3 0.4-0.2 1-0.2 1.6-1-0.1-1.1-1.6-2-1.3-0.9 0.2-1.9 0.3-2.7 0.8 0.6 1.2-1 0.5-0.8 0.7-1.5-0.9-2.8-1.6-4.4-1-3.4-1.1-7.6-0.6-10.7-0.2 0-0.5 0.1-1-0.1-1.1-0.2 0.5-0.8 0.3-0.7 0.3-1.9-1.3-3.8-2.1-5.8-3.2-1.8 0.2-3.5-0.7-4-1.2-1.4-1.3-3-0.6-4.3-0.9-2.8-0.7-3.8-3.6-4.1-5.6-0.2-1-1-1.4-1.3-1.3-1.3-4.2-3.3-8-4.9-11.9-0.4-1-0.3-2-0.3-3.1 0.5 0.2 1 0.1 0.9-0.6-0.5-3.3-1.7-5.8-3-8.2 0.7-3.4 0.8-7.4 2.4-10.4 1.4-2.7 4-4.1 5.8-6.4 0.6-0.8 0.6-1.9 1.2-2.6 2-2 4-4.1 6.2-5.9 1-0.8 2.2 0 3.7-0.3 0.5-1.8 2.5-3.4 4.4-2.9 0.8 0.2 2.4-1.9 2.9-2.1 0.8-0.3 0.4 0.8 0.4 1.5 1.9-1.5 4.5-2.3 6.9-3.2" fill="#d5b263" fill-rule="nonzero" stroke="none" stroke-width="1" stroke-linecap="butt" stroke-linejoin="miter" stroke-miterlimit="10" stroke-dasharray="" stroke-dashoffset="0" font-family="none" font-weight="none" font-size="none" text-anchor="none" style="mix-blend-mode: normal" data-fill-palette-color="tertiary"></path></g><g transform="matrix(1,0,0,1,64,139.44556541160435)"><svg viewBox="0 0 192 81.1088691767913" height="81.1088691767913" width="192"><g><svg viewBox="0 0 192 81.1088691767913" height="81.1088691767913" width="192"><g><svg viewBox="0 0 271.6322982907489 114.74889867841408" height="81.1088691767913" width="192"><g transform="matrix(1,0,0,1,79.6322982907489,0)"><svg viewBox="0 0 192 114.74889867841408" height="114.74889867841408" width="192"><g id="textblocktransform"><svg viewBox="0 0 192 114.74889867841408" height="114.74889867841408" width="192" id="textblock"><g><svg viewBox="0 0 192 114.74889867841408" height="114.74889867841408" width="192"><g transform="matrix(1,0,0,1,0,0)"><svg width="192" viewBox="7.8 -36.9 68.10000000000001 40.699999999999996" height="114.74889867841408" data-palette-color="#d5b263"><path d="M8.4-2.6L8.4-2.6Q9.15-4.25 10.2-6.85 11.25-9.45 12.4-12.48 13.55-15.5 14.75-18.68 15.95-21.85 17-24.7 18.05-27.55 18.82-29.8 19.6-32.05 19.95-33.25L19.95-33.25Q16.8-31.95 14.55-29.3 12.3-26.65 11.15-22.65L11.15-22.65Q10-23.05 9.05-24.08 8.1-25.1 7.8-26.65L7.8-26.65Q8.3-28.95 9.68-30.85 11.05-32.75 13.15-34.1 15.25-35.45 18-36.18 20.75-36.9 23.9-36.9L23.9-36.9Q27.9-36.9 31.25-35.73 34.6-34.55 37-32.45 39.4-30.35 40.75-27.4 42.1-24.45 42.1-20.85L42.1-20.85Q42.1-15.95 40.3-11.5 38.5-7.05 35.43-3.65 32.35-0.25 28.3 1.78 24.25 3.8 19.8 3.8L19.8 3.8Q15.7 3.8 12.78 2.18 9.85 0.55 8.4-2.6ZM26.05-34.4L26.05-34.4Q23.55-34.4 21.3-33.7L21.3-33.7Q23.5-32.9 24.95-32.02 26.4-31.15 26.95-30.65L26.95-30.65Q26.55-30.1 25.78-28.7 25-27.3 23.98-25.3 22.95-23.3 21.8-20.93 20.65-18.55 19.55-16.05L19.55-16.05Q16.7-9.7 15.43-6.05 14.15-2.4 14.15-1L14.15-1Q14.85-0.75 15.85-0.65 16.85-0.55 18-0.55L18-0.55Q22.05-0.55 25.68-2.43 29.3-4.3 32.02-7.45 34.75-10.6 36.33-14.78 37.9-18.95 37.9-23.55L37.9-23.55Q37.9-28.7 34.7-31.55 31.5-34.4 26.05-34.4ZM71.65-15.9L71.65-15.9Q72.95-15.9 73.7-15 74.45-14.1 74.45-12.5L74.45-12.5Q74.45-12.1 74.4-11.68 74.35-11.25 74.25-10.95L74.25-10.95Q73.2-11.2 71.95-11.25L71.95-11.25Q71.65-9.05 70.35-6.63 69.05-4.2 67.2-2.08 65.35 0.05 63.15 1.65 60.95 3.25 58.8 3.8L58.8 3.8Q52.1 3.65 49.02 0.33 45.95-3 45.95-10.05L45.95-10.05Q45.95-15.2 47.85-20.03 49.75-24.85 52.9-28.6 56.05-32.35 60.12-34.63 64.2-36.9 68.6-36.9L68.6-36.9Q72.05-36.9 73.97-35.45 75.9-34 75.9-31.35L75.9-31.35Q75.9-29.6 75.07-28.1 74.25-26.6 72.35-24.85L72.35-24.85Q71.2-25.2 70.35-26.08 69.5-26.95 69.3-28.1L69.3-28.1Q71-29.35 71.7-30.4 72.4-31.45 72.4-32.9L72.4-32.9Q72.4-35.2 69.65-35.2L69.65-35.2Q67.4-35.2 64.82-33.52 62.25-31.85 59.65-28.7L59.65-28.7Q55.95-24.25 54.25-19.53 52.55-14.8 52.55-8.9L52.55-8.9Q52.55-6.7 53-4.9 53.45-3.1 54.2-1.75 54.95-0.4 55.97 0.4 57 1.2 58.2 1.3L58.2 1.3Q59.8 0.95 61.4-0.33 63-1.6 64.32-3.33 65.65-5.05 66.57-7.03 67.5-9 67.7-10.8L67.7-10.8Q66.3-10.5 65.02-10.23 63.75-9.95 62.6-9.95L62.6-9.95Q61.1-9.95 59.97-10.7 58.85-11.45 58.45-12.75L58.45-12.75Q59.35-13.25 61.07-13.8 62.8-14.35 64.75-14.83 66.7-15.3 68.57-15.6 70.45-15.9 71.65-15.9Z" opacity="1" transform="matrix(1,0,0,1,0,0)" fill="#d5b263" class="wordmark-text-0" data-fill-palette-color="primary" id="text-0"></path></svg></g></svg></g></svg></g></svg></g><g transform="matrix(1,0,0,1,0,17.89893255892241)"><svg viewBox="0 0 62.88768 78.95103356056926" height="78.95103356056926" width="62.88768"><g><svg xmlns="http://www.w3.org/2000/svg" xmlns:xlink="http://www.w3.org/1999/xlink" version="1.0" x="0" y="0" viewBox="12.821785 3 74.35642810001882 93.3492355" enable-background="new 0 0 100 100" xml:space="preserve" height="78.95103356056926" width="62.88768" class="icon-icon-0" data-fill-palette-color="accent" id="icon-0"><path d="M86.752 75.862L81.76 61.355c-0.73-2.122-2.361-3.813-4.455-4.62l-18.352-7.07-0.074-7.586 3.882-9.415 1.098-0.369c1.08-0.363 1.848-1.323 1.966-2.456l0.454-4.372c0.126-1.217-0.523-2.384-1.625-2.917l-0.506-0.246 0.282-3.711c0.225-2.964-0.66-5.905-2.484-8.252L59.838 7.627C57.57 4.708 54.08 3 50.383 3h-0.766c-3.697 0-7.186 1.708-9.455 4.627l-0.137 0.177-1.971 2.537c-1.824 2.347-2.709 5.289-2.484 8.252l0.282 3.711-0.506 0.246c-1.102 0.534-1.751 1.7-1.625 2.917l0.454 4.372c0.118 1.133 0.886 2.093 1.966 2.456l1.098 0.369 3.882 9.415-0.074 7.586-18.352 7.07c-2.094 0.807-3.725 2.498-4.455 4.62L13.248 75.862c-0.282 0.82-0.426 1.681-0.426 2.547v2.627h8.396v-3.936V66.53c0-3.556 2.883-6.439 6.438-6.438h44.757c3.556 0 6.439 2.883 6.439 6.438v10.57 3.936h8.326v-2.627C87.178 77.542 87.034 76.681 86.752 75.862z" fill="#c9ad8b" data-fill-palette-color="accent"></path><path d="M73.568 67.724c0-1.352-1.096-2.448-2.448-2.448H28.88c-1.352 0-2.448 1.096-2.448 2.448v24.717h-3.551v0.937c0 1.641 1.331 2.972 2.972 2.971h0.579H73.568h0.579c1.641 0 2.972-1.33 2.972-2.971v-0.937H73.568V67.724z" fill="#c9ad8b" data-fill-palette-color="accent"></path></svg></g></svg></g></svg></g></svg></g></svg></g></svg></g><defs></defs></svg><rect width="320" height="360" fill="none" stroke="none" visibility="hidden"></rect></g></svg></g></svg>